# xmcd
#
# Track frame offsets:
#	187
#	23902
#	43187
#	61470
#	84600
#	112092
#	133755
#	154155
#
# Disc length: 2332 seconds
#
# Revision: 4
# Processed by: cddbd v1.5PL3 Copyright (c) Steve Scherf et al.
# Submitted via: CDex 1.50Beta5
#
DISCID=6e091a08
DTITLE=RCサクセション - BLUE
DYEAR=1987
DGENRE=Pop
TTITLE0=ロックン・ロール・ショー
TTITLE1=Johnny Blue
TTITLE2=多摩蘭坂
TTITLE3=ガ・ガ・ガ・ガ・ガ
TTITLE4=まぼろし
TTITLE5=チャンスは今夜
TTITLE6=よそ者
TTITLE7=あの娘のレター
EXTD=
EXTT0=
EXTT1=
EXTT2=
EXTT3=
EXTT4=
EXTT5=
EXTT6=
EXTT7=
PLAYORDER=
